<svg width="191" height="15" viewBox="0 0 191 15" fill="none" xmlns="http://www.w3.org/2000/svg">
<path d="M0.056 12V0.32H4.04C4.86133 0.32 5.576 0.474666 6.184 0.783999C6.80267 1.09333 7.27733 1.52533 7.608 2.08C7.94933 2.63467 8.12 3.28533 8.12 4.032C8.12 4.768 7.94933 5.41867 7.608 5.984C7.26667 6.53867 6.792 6.97067 6.184 7.28C5.576 7.58933 4.86133 7.744 4.04 7.744H2.456V12H0.056ZM2.456 5.584H4.04C4.552 5.584 4.95733 5.44533 5.256 5.168C5.56533 4.88 5.72 4.50133 5.72 4.032C5.72 3.56267 5.56533 3.18933 5.256 2.912C4.95733 2.624 4.552 2.48 4.04 2.48H2.456V5.584ZM13.3938 12.16C12.6151 12.16 11.9378 12.016 11.3618 11.728C10.7858 11.4293 10.3378 11.0187 10.0178 10.496C9.70842 9.96267 9.55375 9.344 9.55375 8.64V6.56C9.55375 5.856 9.70842 5.24267 10.0178 4.72C10.3378 4.18667 10.7858 3.776 11.3618 3.488C11.9378 3.18933 12.6151 3.04 13.3938 3.04C14.1831 3.04 14.8604 3.18933 15.4258 3.488C16.0018 3.776 16.4444 4.18667 16.7538 4.72C17.0738 5.24267 17.2338 5.856 17.2338 6.56V8.64C17.2338 9.344 17.0738 9.96267 16.7538 10.496C16.4444 11.0187 16.0018 11.4293 15.4258 11.728C14.8604 12.016 14.1831 12.16 13.3938 12.16ZM13.3938 10.08C13.8631 10.08 14.2204 9.95733 14.4658 9.712C14.7111 9.456 14.8338 9.09867 14.8338 8.64V6.56C14.8338 6.09067 14.7111 5.73333 14.4658 5.488C14.2204 5.24267 13.8631 5.12 13.3938 5.12C12.9351 5.12 12.5778 5.24267 12.3218 5.488C12.0764 5.73333 11.9538 6.09067 11.9538 6.56V8.64C11.9538 9.09867 12.0764 9.456 12.3218 9.712C12.5778 9.95733 12.9351 10.08 13.3938 10.08ZM19.6275 12L18.3475 3.2H20.2675L20.9075 8C20.9608 8.352 21.0035 8.752 21.0355 9.2C21.0782 9.648 21.1102 10.016 21.1315 10.304C21.1635 10.016 21.2062 9.65333 21.2595 9.216C21.3235 8.768 21.3822 8.36267 21.4355 8L22.1715 3.2H23.8355L24.5395 8C24.5928 8.36267 24.6462 8.768 24.6995 9.216C24.7635 9.664 24.8115 10.032 24.8435 10.32C24.8648 10.0213 24.8968 9.648 24.9395 9.2C24.9928 8.74133 25.0408 8.34133 25.0835 8L25.7555 3.2H27.6275L26.3315 12H23.9315L23.2755 7.04C23.2328 6.74133 23.1848 6.384 23.1315 5.968C23.0782 5.552 23.0355 5.20533 23.0035 4.928C22.9608 5.20533 22.9128 5.552 22.8595 5.968C22.8062 6.384 22.7582 6.74133 22.7155 7.04L22.0435 12H19.6275ZM32.5973 12.16C31.8186 12.16 31.1359 12.016 30.5493 11.728C29.9733 11.4293 29.5253 11.0187 29.2053 10.496C28.8959 9.96267 28.7413 9.344 28.7413 8.64V6.56C28.7413 5.856 28.8959 5.24267 29.2053 4.72C29.5253 4.18667 29.9733 3.776 30.5493 3.488C31.1359 3.18933 31.8186 3.04 32.5973 3.04C33.3759 3.04 34.0479 3.18933 34.6133 3.488C35.1893 3.776 35.6319 4.18667 35.9413 4.72C36.2613 5.24267 36.4213 5.856 36.4213 6.56V8.16H31.0293V8.64C31.0293 9.19467 31.1626 9.616 31.4293 9.904C31.6959 10.1813 32.0959 10.32 32.6293 10.32C33.0026 10.32 33.3013 10.256 33.5253 10.128C33.7599 10 33.9146 9.824 33.9893 9.6H36.3413C36.1493 10.368 35.7119 10.9867 35.0293 11.456C34.3573 11.9253 33.5466 12.16 32.5973 12.16ZM34.1333 6.928V6.528C34.1333 5.984 34.0053 5.568 33.7493 5.28C33.5039 4.992 33.1199 4.848 32.5973 4.848C32.0746 4.848 31.6799 4.99733 31.4133 5.296C31.1573 5.59467 31.0293 6.016 31.0293 6.56V6.8L34.2933 6.768L34.1333 6.928ZM38.687 12V3.2H40.927V4.88H41.535L40.847 5.904C40.847 4.95467 41.0657 4.24 41.503 3.76C41.9403 3.28 42.5803 3.04 43.423 3.04C44.3937 3.04 45.1457 3.33333 45.679 3.92C46.223 4.50667 46.495 5.33333 46.495 6.4V7.12H43.935V6.56C43.935 6.08 43.8017 5.70667 43.535 5.44C43.279 5.17333 42.9323 5.04 42.495 5.04C42.0363 5.04 41.6843 5.17333 41.439 5.44C41.2043 5.70667 41.087 6.08 41.087 6.56V12H38.687ZM51.7848 12.16C51.0061 12.16 50.3234 12.016 49.7368 11.728C49.1608 11.4293 48.7128 11.0187 48.3928 10.496C48.0834 9.96267 47.9288 9.344 47.9288 8.64V6.56C47.9288 5.856 48.0834 5.24267 48.3928 4.72C48.7128 4.18667 49.1608 3.776 49.7368 3.488C50.3234 3.18933 51.0061 3.04 51.7848 3.04C52.5634 3.04 53.2354 3.18933 53.8008 3.488C54.3768 3.776 54.8194 4.18667 55.1288 4.72C55.4488 5.24267 55.6088 5.856 55.6088 6.56V8.16H50.2168V8.64C50.2168 9.19467 50.3501 9.616 50.6168 9.904C50.8834 10.1813 51.2834 10.32 51.8168 10.32C52.1901 10.32 52.4888 10.256 52.7128 10.128C52.9474 10 53.1021 9.824 53.1768 9.6H55.5288C55.3368 10.368 54.8994 10.9867 54.2168 11.456C53.5448 11.9253 52.7341 12.16 51.7848 12.16ZM53.3208 6.928V6.528C53.3208 5.984 53.1928 5.568 52.9368 5.28C52.6914 4.992 52.3074 4.848 51.7848 4.848C51.2621 4.848 50.8674 4.99733 50.6008 5.296C50.3448 5.59467 50.2168 6.016 50.2168 6.56V6.8L53.4808 6.768L53.3208 6.928ZM60.4505 12.16C59.5652 12.16 58.8558 11.8507 58.3225 11.232C57.7892 10.6133 57.5225 9.776 57.5225 8.72V6.48C57.5225 5.43467 57.7892 4.60267 58.3225 3.984C58.8558 3.35467 59.5652 3.04 60.4505 3.04C61.1758 3.04 61.7465 3.25333 62.1625 3.68C62.5785 4.096 62.7865 4.68267 62.7865 5.44L62.2265 4.88H62.7865L62.7065 2.72V0.32H65.1065V12H62.7865V10.32H62.2265L62.7865 9.76C62.7865 10.5173 62.5785 11.1093 62.1625 11.536C61.7465 11.952 61.1758 12.16 60.4505 12.16ZM61.3145 10.08C61.7518 10.08 62.0932 9.95733 62.3385 9.712C62.5838 9.456 62.7065 9.09867 62.7065 8.64V6.56C62.7065 6.10133 62.5838 5.74933 62.3385 5.504C62.0932 5.248 61.7518 5.12 61.3145 5.12C60.8665 5.12 60.5198 5.248 60.2745 5.504C60.0398 5.74933 59.9225 6.10133 59.9225 6.56V8.64C59.9225 9.09867 60.0398 9.456 60.2745 9.712C60.5198 9.95733 60.8665 10.08 61.3145 10.08ZM81.462 12.16C80.7367 12.16 80.166 11.952 79.75 11.536C79.334 11.1093 79.126 10.5173 79.126 9.76L79.686 10.32H79.126V12H76.806V0.32H79.206V2.72L79.126 4.88H79.686L79.126 5.44C79.126 4.68267 79.334 4.096 79.75 3.68C80.166 3.25333 80.7367 3.04 81.462 3.04C82.3473 3.04 83.0567 3.35467 83.59 3.984C84.1233 4.60267 84.39 5.43467 84.39 6.48V8.72C84.39 9.776 84.1233 10.6133 83.59 11.232C83.0567 11.8507 82.3473 12.16 81.462 12.16ZM80.598 10.08C81.046 10.08 81.3873 9.95733 81.622 9.712C81.8673 9.456 81.99 9.09867 81.99 8.64V6.56C81.99 6.10133 81.8673 5.74933 81.622 5.504C81.3873 5.248 81.046 5.12 80.598 5.12C80.1607 5.12 79.8193 5.248 79.574 5.504C79.3287 5.74933 79.206 6.10133 79.206 6.56V8.64C79.206 9.09867 79.3287 9.456 79.574 9.712C79.8193 9.95733 80.1607 10.08 80.598 10.08ZM87.8558 14.88L89.0558 11.568L85.7598 3.2H88.3678L89.6958 7.04C89.7918 7.328 89.8878 7.68 89.9838 8.096C90.0904 8.50133 90.1704 8.832 90.2238 9.088C90.2771 8.832 90.3518 8.50133 90.4478 8.096C90.5544 7.68 90.6558 7.328 90.7518 7.04L92.0318 3.2H94.5278L90.3678 14.88H87.8558Z" fill="#484848"/>
<path d="M108.851 12.176C107.625 12.176 106.649 11.8453 105.923 11.184C105.209 10.512 104.851 9.61067 104.851 8.48H107.251C107.251 8.97067 107.395 9.36533 107.683 9.664C107.971 9.952 108.361 10.096 108.851 10.096C109.342 10.096 109.731 9.95733 110.019 9.68C110.307 9.392 110.451 9.00267 110.451 8.512V2.56H107.811V0.32H112.851V8.512C112.851 9.64267 112.494 10.5387 111.779 11.2C111.065 11.8507 110.089 12.176 108.851 12.176ZM118.925 12.16C118.146 12.16 117.469 12.016 116.893 11.728C116.317 11.4293 115.869 11.0187 115.549 10.496C115.24 9.96267 115.085 9.344 115.085 8.64V3.68C115.085 2.976 115.24 2.36267 115.549 1.84C115.869 1.30667 116.317 0.895999 116.893 0.608C117.469 0.309333 118.146 0.16 118.925 0.16C119.714 0.16 120.392 0.309333 120.957 0.608C121.533 0.895999 121.976 1.30667 122.285 1.84C122.605 2.36267 122.765 2.976 122.765 3.68V8.64C122.765 9.344 122.605 9.96267 122.285 10.496C121.976 11.0187 121.533 11.4293 120.957 11.728C120.392 12.016 119.714 12.16 118.925 12.16ZM118.925 10.08C119.405 10.08 119.762 9.95733 119.997 9.712C120.242 9.456 120.365 9.09867 120.365 8.64V3.68C120.365 3.21067 120.248 2.85333 120.013 2.608C119.778 2.36267 119.416 2.24 118.925 2.24C118.434 2.24 118.072 2.36267 117.837 2.608C117.602 2.85333 117.485 3.21067 117.485 3.68V8.64C117.485 9.09867 117.602 9.456 117.837 9.712C118.082 9.95733 118.445 10.08 118.925 10.08ZM124.999 12V9.92H127.319V2.4H124.999V0.32H132.039V2.4H129.719V9.92H132.039V12H124.999ZM134.273 12V0.32H137.073L140.097 9.36C140.065 8.96533 140.027 8.512 139.985 8C139.942 7.47733 139.905 6.96 139.873 6.448C139.851 5.92533 139.841 5.48267 139.841 5.12V0.32H141.953V12H139.153L136.161 2.96C136.193 3.30133 136.225 3.70667 136.257 4.176C136.289 4.64533 136.315 5.12 136.337 5.6C136.369 6.08 136.385 6.50667 136.385 6.88V12H134.273ZM147.706 12.16C147.216 12.16 146.821 12.016 146.522 11.728C146.234 11.4293 146.09 11.0347 146.09 10.544C146.09 10.0427 146.234 9.648 146.522 9.36C146.821 9.072 147.216 8.928 147.706 8.928C148.208 8.928 148.602 9.072 148.89 9.36C149.178 9.648 149.322 10.0427 149.322 10.544C149.322 11.0347 149.178 11.4293 148.89 11.728C148.602 12.016 148.208 12.16 147.706 12.16ZM153.508 12V0.32H157.3C158.111 0.32 158.815 0.474666 159.412 0.783999C160.02 1.09333 160.489 1.53067 160.82 2.096C161.161 2.65067 161.332 3.30667 161.332 4.064V8.24C161.332 8.98667 161.161 9.64267 160.82 10.208C160.489 10.7733 160.02 11.216 159.412 11.536C158.815 11.8453 158.111 12 157.3 12H153.508ZM155.908 9.76H157.3C157.791 9.76 158.185 9.62133 158.484 9.344C158.783 9.06667 158.932 8.69867 158.932 8.24V4.064C158.932 3.616 158.783 3.25333 158.484 2.976C158.185 2.69867 157.791 2.56 157.3 2.56H155.908V9.76ZM162.494 12L165.358 0.32H168.398L171.294 12H168.846L168.286 9.36H165.502L164.942 12H162.494ZM165.902 7.44H167.87L167.31 4.624C167.235 4.21867 167.155 3.81867 167.07 3.424C166.995 3.01867 166.936 2.704 166.894 2.48C166.851 2.704 166.792 3.01333 166.718 3.408C166.654 3.80267 166.579 4.20267 166.494 4.608L165.902 7.44ZM172.728 12V0.32H176.488C177.32 0.32 178.04 0.464 178.648 0.752C179.256 1.04 179.725 1.45067 180.056 1.984C180.397 2.51733 180.568 3.14667 180.568 3.872C180.568 4.62933 180.381 5.30667 180.008 5.904C179.645 6.50133 179.149 6.93333 178.52 7.2L180.727 12H178.12L176.232 7.584H175.112V12H172.728ZM175.112 5.504H176.488C177.021 5.504 177.432 5.37067 177.72 5.104C178.018 4.83733 178.168 4.464 178.168 3.984C178.168 3.48267 178.018 3.09333 177.72 2.816C177.432 2.53867 177.021 2.4 176.488 2.4H175.112V5.504ZM182.321 12V0.32H184.721V4.848H185.857L187.777 0.32H190.385L187.985 5.904L190.481 12H187.841L185.857 7.056H184.721V12H182.321Z" fill="#0066FF"/>
</svg>
